# xmcd
#
# Track frame offsets: 
#        150
#        10845
#        55027
#        70429
#        109722
#        136381
#        176801
#        243151
#
# Disc length: 3506 seconds
#
# Revision: 1
# Processed by: cddbd v1.5.2PL0 Copyright (c) Steve Scherf et al.
# Submitted via: ExactAudioCopy v1.2
#
DISCID=680db008
DTITLE=Herbie Mann - Connoisseur Jazz Cuts
DYEAR=2012
DGENRE=Jazz
TTITLE0=Brazilian Soft Shoe
TTITLE1=Caravan
TTITLE2=Flying Home
TTITLE3=A Stella Performance
TTITLE4=Bo-Do
TTITLE5=Lady Bird
TTITLE6=Tel Aviv
TTITLE7=Afro-Jazziac
EXTD=YEAR: 2012
EXTT0=
EXTT1=
EXTT2=
EXTT3=
EXTT4=
EXTT5=
EXTT6=
EXTT7=
PLAYORDER=
